HIERARCHY
ROOT Hips
{
    OFFSET 0.000000 0.000000 0.000000
    CHANNELS 6 Xposition Yposition Zposition Zrotation Xrotation Yrotation
    JOINT Spine
    {
        OFFSET -0.000000 14.517291 0.000000
        CHANNELS 3 Zrotation Xrotation Yrotation
        JOINT Spine1
        {
            OFFSET -0.000000 37.558300 0.000000
            CHANNELS 3 Zrotation Xrotation Yrotation
            JOINT Neck
            {
                OFFSET -0.000000 37.404057 3.400369
                CHANNELS 3 Zrotation Xrotation Yrotation
                JOINT Head
                {
                    OFFSET -0.000000 24.785618 -3.540803
                    CHANNELS 3 Zrotation Xrotation Yrotation
                    End Site
                    {
                        OFFSET -0.000000 35.408028 0.000000
                    }
                }
            }
            JOINT LeftShoulder
            {
                OFFSET 6.992933 33.973492 -0.192664
                CHANNELS 3 Zrotation Xrotation Yrotation
                JOINT LeftArm
                {
                    OFFSET 21.527611 0.000000 0.000000
                    CHANNELS 3 Zrotation Xrotation Yrotation
                    JOINT LeftForeArm
                    {
                        OFFSET 56.353916 0.000000 0.000000
                        CHANNELS 3 Zrotation Xrotation Yrotation
                        JOINT LeftHand
                        {
                            OFFSET 47.774071 0.000000 0.000000
                            CHANNELS 3 Zrotation Xrotation Yrotation
                            End Site
                            {
                                OFFSET 26.556021 0.000000 0.000000
                            }
                        }
                    }
                }
            }
            JOINT RightShoulder
            {
                OFFSET -7.065357 33.973492 -0.192664
                CHANNELS 3 Zrotation Xrotation Yrotation
                JOINT RightArm
                {
                    OFFSET -21.527611 0.000000 0.000000
                    CHANNELS 3 Zrotation Xrotation Yrotation
                    JOINT RightForeArm
                    {
                        OFFSET -56.353916 0.000000 0.000000
                        CHANNELS 3 Zrotation Xrotation Yrotation
                        JOINT RightHand
                        {
                            OFFSET -47.774071 0.000000 0.000000
                            CHANNELS 3 Zrotation Xrotation Yrotation
                            End Site
                            {
                                OFFSET -26.556021 0.000000 0.000000
                            }
                        }
                    }
                }
            }
        }
    }
    JOINT LeftUpLeg
    {
        OFFSET 17.704014 0.000000 0.000000
        CHANNELS 3 Zrotation Xrotation Yrotation
        JOINT LeftLeg
        {
            OFFSET -0.000000 -81.181816 0.000000
            CHANNELS 3 Zrotation Xrotation Yrotation
            JOINT LeftFoot
            {
                OFFSET -0.000000 -62.821102 0.000000
                CHANNELS 3 Zrotation Xrotation Yrotation
                JOINT LeftToeBase
                {
                    OFFSET -0.000000 -11.507608 26.556021
                    CHANNELS 3 Zrotation Xrotation Yrotation
                    End Site
                    {
                        OFFSET -0.000000 0.000000 7.081605
                    }
                }
            }
        }
    }
    JOINT RightUpLeg
    {
        OFFSET -17.704014 0.000000 0.000000
        CHANNELS 3 Zrotation Xrotation Yrotation
        JOINT RightLeg
        {
            OFFSET -0.000000 -81.181816 0.000000
            CHANNELS 3 Zrotation Xrotation Yrotation
            JOINT RightFoot
            {
                OFFSET -0.000000 -62.821102 0.000000
                CHANNELS 3 Zrotation Xrotation Yrotation
                JOINT RightToeBase
                {
                    OFFSET -0.000000 -11.507608 26.556021
                    CHANNELS 3 Zrotation Xrotation Yrotation
                    End Site
                    {
                        OFFSET -0.000000 0.000000 7.081605
                    }
                }
            }
        }
    }
}
MOTION
Frames:    12
Frame Time:    0.008333
35.521816    160.327087    -97.229492    -3.071540    0.873277    22.944262    -0.984488    -4.791367    -3.339882    -9.282143    4.302900    -0.744788    17.656208    -3.084111    3.412901    2.667753    -0.317732    0.808578    9.833425    6.040227    -13.719031    -37.955051    11.570102    -53.018433    -10.036592    -19.620531    -115.612030    -2.740436    -33.703754    -11.184604    -10.198580    6.500473    -11.016139    24.110931    32.701054    0.618484    29.085320    15.923799    -5.464584    42.106968    12.540554    -12.694530    9.429206    3.948663    1.234387    -8.534722    17.508574    -16.576302    4.140732    -21.906694    44.868614    0.000000    0.000000    0.000000    -10.948415    -26.280243    -5.949770    10.430996    24.557024    -12.708116    1.153396    10.056468    -11.865802    0.000000    0.000000    0.000000    
35.509647    160.327484    -97.231033    -3.073374    0.877471    22.916710    -0.944971    -4.783829    -3.373135    -9.317141    4.293389    -0.756000    17.569118    -3.160748    3.436427    2.742617    -0.210247    0.845083    9.792214    5.997897    -13.625051    -37.915688    11.593425    -53.015572    -10.051707    -19.618370    -115.648712    -2.723739    -33.733566    -11.172114    -10.232097    6.481733    -10.995441    24.167749    32.670219    0.718459    28.982025    15.889980    -5.379692    41.994297    12.501292    -12.674456    9.429403    3.946849    1.249435    -8.529271    17.516315    -16.577438    4.135992    -21.912725    44.873188    0.000000    0.000000    0.000000    -10.935935    -26.289173    -5.928254    10.428588    24.545664    -12.713665    1.161599    10.070082    -11.841698    0.000000    0.000000    0.000000    
35.497620    160.326889    -97.228134    -3.072088    0.875117    22.898523    -0.952561    -4.783925    -3.370726    -9.306974    4.289693    -0.755799    17.575300    -3.170791    3.442627    2.701751    -0.168039    0.841922    9.792546    6.005375    -13.619610    -37.903030    11.589411    -53.044437    -10.044196    -19.639763    -115.653496    -2.722413    -33.743374    -11.178677    -10.224448    6.451536    -10.983972    24.203817    32.685822    0.771277    28.867065    15.848234    -5.271090    41.886711    12.457269    -12.627160    9.433754    3.956273    1.258284    -8.534404    17.511951    -16.574030    4.131825    -21.921961    44.881805    0.000000    0.000000    0.000000    -10.929387    -26.285004    -5.914881    10.443220    24.534868    -12.721710    1.151171    10.063652    -11.828094    0.000000    0.000000    0.000000    
35.483521    160.325272    -97.227188    -3.078188    0.874910    22.876764    -0.954011    -4.789699    -3.362144    -9.294355    4.285883    -0.753700    17.517757    -3.182601    3.433499    2.754486    -0.126929    0.847754    9.789768    6.001085    -13.622072    -37.894508    11.593493    -53.055927    -10.038630    -19.673588    -115.667236    -2.710623    -33.770603    -11.166972    -10.224001    6.416851    -10.969585    24.241199    32.729809    0.846607    28.770350    15.839839    -5.203557    41.832474    12.464419    -12.546546    9.445045    3.958015    1.280101    -8.535962    17.512291    -16.581024    4.139519    -21.912582    44.878510    0.000000    0.000000    0.000000    -10.909628    -26.291597    -5.901812    10.441906    24.530991    -12.707424    1.141248    10.065738    -11.837525    0.000000    0.000000    0.000000    
35.471771    160.323502    -97.223358    -3.079952    0.869940    22.864008    -0.957202    -4.781395    -3.353985    -9.285979    4.265539    -0.752993    17.539587    -3.170832    3.435637    2.692694    -0.111581    0.838558    9.800338    6.017187    -13.630467    -37.898933    11.580167    -53.074848    -10.044100    -19.685537    -115.687988    -2.669987    -33.797962    -11.128395    -10.213531    6.353721    -10.954999    24.208715    32.704163    0.968622    28.802998    15.852254    -5.227139    41.794617    12.512992    -12.483440    9.448932    3.967840    1.290874    -8.524778    17.501228    -16.588703    4.123237    -21.920971    44.892361    0.000000    0.000000    0.000000    -10.893759    -26.282612    -5.904485    10.431240    24.519094    -12.687500    1.143111    10.054718    -11.827366    0.000000    0.000000    0.000000    
35.459831    160.323074    -97.216309    -3.079321    0.862046    22.863712    -0.969499    -4.781989    -3.353459    -9.268175    4.258716    -0.753857    17.540878    -3.156982    3.435136    2.663756    -0.094133    0.835488    9.802155    6.023671    -13.646080    -37.889915    11.576017    -53.075878    -10.016401    -19.728056    -115.697556    -2.680615    -33.800110    -11.116410    -10.194017    6.312220    -10.915652    24.162598    32.610054    1.080281    28.852598    15.880143    -5.257708    41.625809    12.612114    -12.376798    9.459086    3.976038    1.267084    -8.535732    17.503691    -16.576008    4.129976    -21.918861    44.899536    0.000000    0.000000    0.000000    -10.881203    -26.266668    -5.904204    10.420947    24.506462    -12.665293    1.152257    10.047524    -11.838796    0.000000    0.000000    0.000000    
35.446827    160.318771    -97.208443    -3.080531    0.851427    22.864649    -0.980082    -4.777548    -3.351517    -9.250756    4.246250    -0.754738    17.544725    -3.152880    3.435189    2.633805    -0.070813    0.830710    9.807909    6.030087    -13.654797    -37.874523    11.596508    -53.086227    -9.985892    -19.800827    -115.712837    -2.696946    -33.825966    -11.095499    -10.171504    6.270829    -10.883809    24.118195    32.504597    1.198335    28.824120    15.979433    -5.297399    41.606785    12.835719    -12.078570    9.471063    3.984181    1.257298    -8.539635    17.509390    -16.583735    4.136802    -21.932184    44.914803    0.000000    0.000000    0.000000    -10.867163    -26.250826    -5.904767    10.413095    24.499889    -12.654062    1.135978    10.036201    -11.831923    0.000000    0.000000    0.000000    
35.432449    160.318878    -97.200684    -3.084571    0.835323    22.872822    -1.007742    -4.834567    -3.291499    -9.202707    4.343235    -0.728152    17.551428    -3.145718    3.409916    2.593951    -0.113100    0.799534    9.806309    6.007914    -13.799531    -37.856659    11.532245    -53.069500    -9.939852    -19.842215    -115.698128    -2.204495    -33.840687    -10.789535    -10.132128    6.205691    -10.899414    24.089333    32.332386    1.264850    28.798996    15.970662    -5.292886    41.372608    12.892516    -11.970354    9.485513    3.988227    1.242207    -8.535086    17.525938    -16.600510    4.143909    -21.939137    44.934593    0.000000    0.000000    0.000000    -10.848067    -26.232603    -5.900845    10.402152    24.497597    -12.643815    1.158261    10.027749    -11.844932    0.000000    0.000000    0.000000    
35.419361    160.316391    -97.196144    -3.093301    0.826290    22.888046    -1.029708    -4.828545    -3.276390    -9.181123    4.312379    -0.726120    17.611670    -3.091432    3.401885    2.526917    -0.137649    0.779558    9.845423    6.042511    -13.853245    -37.879784    11.505022    -53.080139    -9.913943    -19.865891    -115.691574    -2.229591    -33.822906    -10.782475    -10.070476    6.156295    -10.852258    24.075207    32.168591    1.314375    28.709518    15.978294    -5.275915    41.116608    12.988157    -11.790582    9.504544    3.968825    1.226480    -8.527983    17.681543    -16.675627    4.167883    -22.053394    44.960495    0.000000    0.000000    0.000000    -10.834786    -26.219122    -5.903412    10.406339    24.485025    -12.658774    1.148005    10.025278    -11.845688    0.000000    0.000000    0.000000    
35.406868    160.313232    -97.190048    -3.103590    0.817158    22.904982    -1.009198    -4.811060    -3.296898    -9.197472    4.272955    -0.735924    17.581444    -3.097014    3.397611    2.564587    -0.105920    0.784346    9.852526    6.062429    -13.804139    -37.851963    11.518146    -53.104736    -9.913603    -19.898077    -115.720978    -2.239055    -33.857643    -10.783337    -10.047156    6.100882    -10.827188    24.052755    32.053928    1.425042    28.614090    16.019741    -5.153625    40.814838    13.053296    -11.726563    9.521350    3.962979    1.206539    -8.533512    17.686481    -16.642242    4.175716    -22.058939    44.953480    0.000000    0.000000    0.000000    -10.821029    -26.208941    -5.893391    10.410583    24.479704    -12.657699    1.148696    10.021841    -11.867409    0.000000    0.000000    0.000000    
35.394035    160.309097    -97.182976    -3.112228    0.806145    22.924057    -0.988261    -4.800344    -3.314004    -9.222368    4.244564    -0.743297    17.634022    -3.071614    3.412691    2.495504    -0.113157    0.784807    9.871598    6.077055    -13.770454    -37.837116    11.525434    -53.111210    -9.891809    -19.935364    -115.737984    -2.250582    -33.864536    -10.779791    -10.008873    6.040668    -10.795112    23.992641    31.842909    1.563114    28.578503    16.064552    -5.074005    40.489929    13.141727    -11.650903    9.540462    3.956679    1.182574    -8.536131    17.705097    -16.638575    4.185677    -22.073292    44.957500    0.000000    0.000000    0.000000    -10.809274    -26.198795    -5.894021    10.417981    24.482971    -12.675832    1.128699    10.005075    -11.856680    0.000000    0.000000    0.000000    
35.382133    160.307434    -97.174965    -3.123251    0.797176    22.939487    -0.975553    -4.810953    -3.312696    -9.223424    4.238797    -0.743480    17.629839    -3.080092    3.420380    2.491038    -0.082012    0.790961    9.867615    6.099863    -13.765213    -37.802021    11.517576    -53.119492    -9.875768    -19.978462    -115.748924    -2.243976    -33.884209    -10.779654    -9.990962    6.001859    -10.779658    23.946827    31.675358    1.711951    28.510323    16.126656    -4.947047    39.999733    13.303859    -11.431812    9.563169    3.952241    1.186974    -8.537605    17.717623    -16.635975    4.177826    -22.076118    44.938244    0.000000    0.000000    0.000000    -10.796675    -26.190071    -5.879692    10.429065    24.478928    -12.684568    1.128514    10.004477    -11.876742    0.000000    0.000000    0.000000    
